:SAMPLES-PER-SECOND 30
:FULLY-SPECIFIED
:DEGREES
177
root  49.2579 34.0725 -56.6991 13.5955 -51.3549 0.273441
RightUpLeg  -7.39274 -14.6375 2.94372
RightLeg  8.16081 2.3325 0.183752
RightFoot  -5.54457 -0.0310464 -0.109064
RightToes  -24.2035 -0.101353 -0.206788
Spine  -1.04635 0.906707 0.456702
Spine1  -2.13364 1.90711 1.47667
HEad  -72.7826 -0.14694 6.30273
LeftShoulder1  -1.94126e-019 -3.10601e-018 -2.51263e-017
LeftArm  -12.7686 28.7208 -83.3453
LeftForeArm  31.9291 -18.8921 -3.10811
LeftHand  -0.406089 -0.871876 7.65707
RightShoulder  -4.96962e-017 0 -2.36833e-017
RightArm  -33.6232 -22.6934 75.2115
RightForeArm  62.3257 9.54614 1.51205
RightHand  -0.353142 -1.51324 -10.4475
LeftUpLeg  -35.0855 4.04535 -1.45364
LeftLeg  47.8336 19.5776 18.0125
LeftFoot  -2.91061 -0.0371354 -1.30005
LeftToes  -11.1428 1.87998e-006 4.79886e-008
178
root  48.8211 33.9831 -56.1586 13.2134 -50.8174 0.871031
RightUpLeg  -6.33754 -15.0936 2.2002
RightLeg  8.15931 1.84803 0.145767
RightFoot  -6.38839 -0.0342044 -0.0784759
RightToes  -23.986 -0.101051 -0.205752
Spine  -0.930226 0.977066 0.289334
Spine1  -1.89985 2.09207 1.13345
HEad  -73.496 -0.724245 6.08186
LeftShoulder1  -1.94126e-019 -3.10601e-018 -2.51263e-017
LeftArm  -13.3419 29.1721 -83.5144
LeftForeArm  32.1147 -17.6892 -2.92505
LeftHand  -0.412415 -0.949312 7.68608
RightShoulder  -4.96962e-017 0 -2.36833e-017
RightArm  -32.1283 -22.3798 75.5442
RightForeArm  61.5356 10.2424 1.53697
RightHand  -0.34126 -1.5203 -10.1069
LeftUpLeg  -37.1031 3.81065 -1.83732
LeftLeg  43.9583 18.9475 15.3767
LeftFoot  -2.49247 -0.0246112 -0.969706
LeftToes  -13.0155 1.87998e-006 4.79886e-008
179
root  48.3469 33.8704 -55.5292 12.4736 -50.3065 1.84421
RightUpLeg  -5.2488 -14.3161 1.0926
RightLeg  8.77675 0.473007 0.0432449
RightFoot  -7.35777 -0.0294899 0.0833088
RightToes  -23.9784 -0.100928 -0.204675
Spine  -0.820343 1.02223 0.026601
Spine1  -1.68253 2.22318 0.602138
HEad  -74.082 -1.34334 5.95675
LeftShoulder1  -1.94126e-019 -3.10601e-018 -2.51263e-017
LeftArm  -14.5656 29.4732 -83.6768
LeftForeArm  31.6231 -16.5138 -2.75694
LeftHand  -0.392488 -0.855076 7.42267
RightShoulder  -4.96962e-017 0 -2.36833e-017
RightArm  -29.6823 -22.133 75.9166
RightForeArm  59.6868 11.3023 1.51888
RightHand  -0.33065 -1.52942 -9.8084
LeftUpLeg  -38.3123 2.75062 -2.12598
LeftLeg  38.727 17.5113 11.9111
LeftFoot  -1.62504 -0.00892618 -0.46783
LeftToes  -15.7917 1.87998e-006 4.79886e-008
180
root  47.8454 33.7269 -54.8234 11.9859 -49.9189 2.62779
RightUpLeg  -4.61853 -13.337 0.116176
RightLeg  10.2311 -1.18765 -0.135261
RightFoot  -8.84703 -0.0157985 0.34664
RightToes  -23.861 -0.101307 -0.204265
Spine  -0.808941 1.10204 -0.191503
Spine1  -1.66133 2.41606 0.162978
HEad  -74.5802 -1.9891 5.85262
LeftShoulder1  -1.94126e-019 -3.10601e-018 -2.51263e-017
LeftArm  -15.8072 29.9521 -83.8599
LeftForeArm  30.5225 -15.696 -2.62956
LeftHand  -0.357589 -0.660763 6.97225
RightShoulder  -4.96962e-017 0 -2.36833e-017
RightArm  -27.3061 -21.9716 76.1232
RightForeArm  58.1956 12.3311 1.44555
RightHand  -0.338408 -1.3872 -9.70169
LeftUpLeg  -39.0124 0.69335 -1.91167
LeftLeg  33.1072 16.0857 8.87776
LeftFoot  -0.439732 -0.000559706 0.0156443
LeftToes  -17.1687 1.87998e-006 4.79886e-008
181
root  47.3104 33.5493 -54.017 11.0791 -49.5121 3.74377
RightUpLeg  -4.07974 -12.0557 -1.15499
RightLeg  12.5616 -3.15574 -0.49176
RightFoot  -10.7255 0.0204593 0.779559
RightToes  -23.6144 -0.10251 -0.205228
Spine  -0.807035 1.13962 -0.485206
Spine1  -1.66313 2.51172 -0.416584
HEad  -74.8993 -2.6182 5.78002
LeftShoulder1  -1.94126e-019 -3.10601e-018 -2.51263e-017
LeftArm  -17.0483 30.4685 -83.9079
LeftForeArm  30.1693 -15.0988 -2.51969
LeftHand  -0.348712 -0.744234 6.7159
RightShoulder  -4.96962e-017 0 -2.36833e-017
RightArm  -25.3051 -21.7388 76.3328
RightForeArm  56.8834 13.2017 1.35462
RightHand  -0.343672 -1.33577 -9.73588
LeftUpLeg  -39.0654 -3.29714 -1.22809
LeftLeg  28.1824 15.2207 6.81886
LeftFoot  2.02662 -0.0107388 0.768717
LeftToes  -19.0924 1.87998e-006 4.79886e-008
182
root  46.7314 33.3262 -53.0615 9.28401 -49.2726 5.4999
RightUpLeg  -3.62161 -11.3082 -3.13287
RightLeg  16.3605 -4.41098 -0.99102
RightFoot  -12.9245 0.07367 1.219
RightToes  -24.1225 -0.105612 -0.209114
Spine  -0.749752 1.22864 -0.951329
Spine1  -1.56586 2.69287 -1.33023
HEad  -74.9974 -3.29635 5.86579
LeftShoulder1  -1.94126e-019 -3.10601e-018 -2.51263e-017
LeftArm  -17.3933 30.9004 -83.6226
LeftForeArm  29.7718 -14.8833 -2.472
LeftHand  -0.346774 -0.765988 6.65736
RightShoulder  -4.96962e-017 0 -2.36833e-017
RightArm  -24.5042 -21.3577 76.6681
RightForeArm  56.3553 13.5918 1.30884
RightHand  -0.360112 -1.12535 -9.72749
LeftUpLeg  -38.4858 -7.98094 -1.19217
LeftLeg  26.2074 14.2117 5.81007
LeftFoot  5.13087 -0.0632218 1.57253
LeftToes  -16.7708 1.87998e-006 4.79886e-008
